<svg width="720" height="820" viewBox="0 0 720 820" fill="none" xmlns="http://www.w3.org/2000/svg">
  <rect width="720" height="820" rx="40" fill="#111C33"/>
  <circle cx="548" cy="182" r="116" fill="#38BDF8" fill-opacity="0.16"/>
  <circle cx="216" cy="240" r="96" fill="#0EA5E9" fill-opacity="0.16"/>
  <rect x="180" y="160" width="360" height="460" rx="36" fill="#0F172A" stroke="#38BDF8" stroke-opacity="0.3"/>
  <circle cx="360" cy="300" r="110" fill="#F8FAFC"/>
  <path d="M250 455C265 379 314 332 360 332C406 332 455 379 470 455V560H250V455Z" fill="#38BDF8"/>
  <path d="M280 278C280 229 317 192 366 192C415 192 452 229 452 278V306H280V278Z" fill="#F8FAFC"/>
  <rect x="244" y="548" width="232" height="48" rx="24" fill="#38BDF8" fill-opacity="0.25"/>
  <rect x="228" y="618" width="264" height="18" rx="9" fill="#F8FAFC" fill-opacity="0.12"/>
  <rect x="228" y="652" width="204" height="14" rx="7" fill="#F8FAFC" fill-opacity="0.08"/>
</svg>